<svg width="1600" height="900" viewBox="0 0 1600 900" xmlns="http://www.w3.org/2000/svg">
  <!-- Background -->
  <defs>
    <linearGradient id="portalBg" x1="0%" y1="0%" x2="100%" y2="100%">
      <stop offset="0%" style="stop-color:#0a0f1a;stop-opacity:1" />
      <stop offset="100%" style="stop-color:#0f172a;stop-opacity:1" />
    </linearGradient>
  </defs>
  <rect width="1600" height="900" fill="url(#portalBg)"/>

  <!-- Browser Window Mockup -->
  <g transform="translate(100, 50)">
    <!-- Window Frame -->
    <rect x="0" y="0" width="1400" height="800" rx="12" fill="#1e293b" stroke="#334155" stroke-width="2"/>

    <!-- Browser Bar -->
    <rect x="0" y="0" width="1400" height="50" rx="12" fill="#151d2e"/>
    <circle cx="25" cy="25" r="8" fill="#ef4444"/>
    <circle cx="50" cy="25" r="8" fill="#f59e0b"/>
    <circle cx="75" cy="25" r="8" fill="#10b981"/>
    <text x="700" y="32" font-family="'Inter', sans-serif" font-size="14" fill="#64748b" text-anchor="middle">
      customer.yourpropanecompany.com
    </text>

    <!-- Portal Content -->
    <rect x="0" y="50" width="1400" height="750" fill="#0a0f1a"/>

    <!-- Header -->
    <rect x="0" y="50" width="1400" height="80" fill="#151d2e"/>
    <text x="40" y="100" font-family="'Inter', sans-serif" font-size="24" font-weight="700" fill="#ffffff">
      My Account
    </text>
    <text x="1250" y="100" font-family="'Inter', sans-serif" font-size="16" fill="#10b981">
      Welcome, John Miller
    </text>

    <!-- Tank Level Widget -->
    <g transform="translate(40, 160)">
      <rect width="420" height="240" rx="12" fill="#151d2e"/>
      <text x="20" y="35" font-family="'Inter', sans-serif" font-size="20" font-weight="700" fill="#ffffff">
        🛢 Current Tank Level
      </text>

      <!-- Tank Visual -->
      <g transform="translate(140, 70)">
        <rect x="0" y="0" width="140" height="100" rx="8" fill="#1e293b" stroke="#334155" stroke-width="2"/>
        <rect x="0" y="82" width="140" height="18" rx="4" fill="#ef4444"/>
        <text x="70" y="115" font-family="'JetBrains Mono', monospace" font-size="28" font-weight="900" fill="#ef4444" text-anchor="middle">
          18%
        </text>
      </g>

      <text x="20" y="200" font-family="'Inter', sans-serif" font-size="16" fill="#ef4444">
        ⚠ Low - Schedule delivery
      </text>
      <rect x="20" y="210" width="380" height="16" rx="8" fill="#1e293b"/>
      <rect x="20" y="210" width="68" height="16" rx="8" fill="#ef4444"/>
    </g>

    <!-- Auto-Delivery Card -->
    <g transform="translate(480, 160)">
      <rect width="420" height="240" rx="12" fill="#151d2e"/>
      <text x="20" y="35" font-family="'Inter', sans-serif" font-size="20" font-weight="700" fill="#ffffff">
        📅 Auto-Delivery
      </text>
      <text x="20" y="75" font-family="'Inter', sans-serif" font-size="16" fill="#94a3b8">
        Status: Active
      </text>
      <text x="20" y="105" font-family="'Inter', sans-serif" font-size="16" fill="#94a3b8">
        Next delivery: Estimated Feb 2
      </text>
      <text x="20" y="135" font-family="'Inter', sans-serif" font-size="16" fill="#94a3b8">
        Threshold: 25%
      </text>

      <rect x="20" y="160" width="380" height="50" rx="8" fill="#10b981"/>
      <text x="210" y="192" font-family="'Inter', sans-serif" font-size="16" font-weight="700" fill="#0a0f1a" text-anchor="middle">
        ✓ Auto-Delivery Enabled
      </text>
    </g>

    <!-- Recent Deliveries -->
    <g transform="translate(920, 160)">
      <rect width="440" height="240" rx="12" fill="#151d2e"/>
      <text x="20" y="35" font-family="'Inter', sans-serif" font-size="20" font-weight="700" fill="#ffffff">
        📦 Recent Deliveries
      </text>

      <g transform="translate(20, 60)">
        <text x="0" y="0" font-family="'Inter', sans-serif" font-size="14" fill="#64748b">Jan 15, 2026</text>
        <text x="0" y="20" font-family="'Inter', sans-serif" font-size="15" fill="#ffffff">250 gallons • $725.00</text>
      </g>

      <g transform="translate(20, 110)">
        <text x="0" y="0" font-family="'Inter', sans-serif" font-size="14" fill="#64748b">Dec 12, 2025</text>
        <text x="0" y="20" font-family="'Inter', sans-serif" font-size="15" fill="#ffffff">280 gallons • $812.00</text>
      </g>

      <g transform="translate(20, 160)">
        <text x="0" y="0" font-family="'Inter', sans-serif" font-size="14" fill="#64748b">Nov 8, 2025</text>
        <text x="0" y="20" font-family="'Inter', sans-serif" font-size="15" fill="#ffffff">265 gallons • $795.00</text>
      </g>
    </g>

    <!-- Quick Actions -->
    <g transform="translate(40, 430)">
      <rect width="1320" height="60" rx="8" fill="#151d2e"/>
      <text x="20" y="38" font-family="'Inter', sans-serif" font-size="18" font-weight="700" fill="#ffffff">
        Quick Actions
      </text>
    </g>

    <g transform="translate(40, 510)">
      <!-- Order Now Button -->
      <rect width="310" height="100" rx="12" fill="#10b981"/>
      <text x="155" y="60" font-family="'Inter', sans-serif" font-size="20" font-weight="700" fill="#0a0f1a" text-anchor="middle">
        🚚 Order Delivery
      </text>
    </g>

    <g transform="translate(370, 510)">
      <!-- View Invoices -->
      <rect width="310" height="100" rx="12" fill="#1e293b" stroke="#334155" stroke-width="2"/>
      <text x="155" y="60" font-family="'Inter', sans-serif" font-size="20" font-weight="700" fill="#ffffff" text-anchor="middle">
        💳 View Invoices
      </text>
    </g>

    <g transform="translate(700, 510)">
      <!-- Payment Method -->
      <rect width="310" height="100" rx="12" fill="#1e293b" stroke="#334155" stroke-width="2"/>
      <text x="155" y="60" font-family="'Inter', sans-serif" font-size="20" font-weight="700" fill="#ffffff" text-anchor="middle">
        💰 Payment Method
      </text>
    </g>

    <g transform="translate(1030, 510)">
      <!-- Support -->
      <rect width="310" height="100" rx="12" fill="#1e293b" stroke="#334155" stroke-width="2"/>
      <text x="155" y="60" font-family="'Inter', sans-serif" font-size="20" font-weight="700" fill="#ffffff" text-anchor="middle">
        💬 Contact Support
      </text>
    </g>

    <!-- Usage Chart -->
    <g transform="translate(40, 640)">
      <rect width="1320" height="140" rx="12" fill="#151d2e"/>
      <text x="20" y="30" font-family="'Inter', sans-serif" font-size="18" font-weight="700" fill="#ffffff">
        Usage History
      </text>

      <!-- Simple bar chart -->
      <g transform="translate(40, 50)">
        <rect x="0" y="60" width="40" height="20" fill="#10b981" opacity="0.6"/>
        <rect x="60" y="45" width="40" height="35" fill="#10b981" opacity="0.7"/>
        <rect x="120" y="30" width="40" height="50" fill="#10b981" opacity="0.8"/>
        <rect x="180" y="20" width="40" height="60" fill="#10b981"/>
        <rect x="240" y="35" width="40" height="45" fill="#64748b"/>

        <text x="20" y="100" font-family="'Inter', sans-serif" font-size="11" fill="#64748b">Oct</text>
        <text x="80" y="100" font-family="'Inter', sans-serif" font-size="11" fill="#64748b">Nov</text>
        <text x="140" y="100" font-family="'Inter', sans-serif" font-size="11" fill="#64748b">Dec</text>
        <text x="200" y="100" font-family="'Inter', sans-serif" font-size="11" fill="#64748b">Jan</text>
        <text x="260" y="100" font-family="'Inter', sans-serif" font-size="11" fill="#64748b">Feb</text>
      </g>

      <text x="400" y="100" font-family="'Inter', sans-serif" font-size="14" fill="#64748b">
        Average: 265 gal/month
      </text>
    </g>
  </g>
</svg>
