<svg xmlns="http://www.w3.org/2000/svg" style="display: none;">
  <!-- Wayne Conn - Phone with Dollar (Revenue Recovery) -->
  <symbol id="icon-phone-dollar" viewBox="0 0 32 32">
    <g stroke="currentColor" stroke-width="2" fill="none" stroke-linecap="round" stroke-linejoin="round">
      <!-- Phone -->
      <path d="M8 5a2 2 0 0 1 2-2h12a2 2 0 0 1 2 2v22a2 2 0 0 1-2 2H10a2 2 0 0 1-2-2V5z"/>
      <circle cx="16" cy="24" r="0.5" fill="currentColor"/>

      <!-- Dollar sign badge -->
      <circle cx="23" cy="9" r="5" fill="#10b981" stroke="#10b981"/>
      <text x="23" y="12" font-size="7" fill="white" text-anchor="middle" font-family="'JetBrains Mono', monospace" font-weight="700">$</text>
    </g>
  </symbol>

  <!-- Adleg - Document with Gauge (Speed/Efficiency) -->
  <symbol id="icon-doc-gauge" viewBox="0 0 32 32">
    <g stroke="currentColor" stroke-width="2" fill="none" stroke-linecap="round" stroke-linejoin="round">
      <!-- Document -->
      <path d="M8 4h12l4 4v18a2 2 0 0 1-2 2H8a2 2 0 0 1-2-2V6a2 2 0 0 1 2-2z"/>
      <path d="M20 4v4h4"/>

      <!-- Gauge/speedometer -->
      <circle cx="16" cy="18" r="5"/>
      <path d="M16 16l3 3"/>
      <circle cx="16" cy="18" r="0.5" fill="currentColor"/>
    </g>
  </symbol>

  <!-- Beaver Pumice - Clipboard to Tablet Transform -->
  <symbol id="icon-clipboard-tablet" viewBox="0 0 32 32">
    <g stroke="currentColor" stroke-width="2" fill="none" stroke-linecap="round" stroke-linejoin="round">
      <!-- Clipboard (old) -->
      <path d="M6 6h6v-2a1 1 0 0 1 1-1h2a1 1 0 0 1 1 1v2h6"/>
      <rect x="6" y="6" width="10" height="14" rx="1"/>
      <line x1="8" y1="10" x2="14" y2="10"/>
      <line x1="8" y1="13" x2="12" y2="13"/>

      <!-- Arrow -->
      <path d="M18 13l2-1 2 1"/>

      <!-- Tablet (new) -->
      <rect x="20" y="10" width="8" height="12" rx="1"/>
      <circle cx="24" cy="19" r="0.5" fill="currentColor"/>
    </g>
  </symbol>

  <!-- Jami Consulting - AI Robot with Headset -->
  <symbol id="icon-robot-headset" viewBox="0 0 32 32">
    <g stroke="currentColor" stroke-width="2" fill="none" stroke-linecap="round" stroke-linejoin="round">
      <!-- Robot head -->
      <rect x="10" y="12" width="12" height="10" rx="2"/>

      <!-- Eyes -->
      <circle cx="14" cy="17" r="1" fill="currentColor"/>
      <circle cx="18" cy="17" r="1" fill="currentColor"/>

      <!-- Mouth -->
      <path d="M13 20h6"/>

      <!-- Headset -->
      <path d="M8 16a2 2 0 0 1 2-2"/>
      <path d="M22 14a2 2 0 0 1 2 2"/>
      <path d="M6 16v2a2 2 0 0 0 2 2"/>

      <!-- Antenna -->
      <path d="M16 12V9"/>
      <circle cx="16" cy="7" r="2"/>
    </g>
  </symbol>

  <!-- Field Services - Wrench/Tool -->
  <symbol id="icon-wrench" viewBox="0 0 32 32">
    <g stroke="currentColor" stroke-width="2" fill="none" stroke-linecap="round" stroke-linejoin="round">
      <path d="M22 12l-8 8-4-4 8-8a6 6 0 0 1 8.5 0 6 6 0 0 1-4.5 10z"/>
      <circle cx="12" cy="20" r="2"/>
      <path d="M6 26l4-4"/>
    </g>
  </symbol>

  <!-- Missed Call Icon -->
  <symbol id="icon-missed-call" viewBox="0 0 32 32">
    <g stroke="currentColor" stroke-width="2.5" fill="none" stroke-linecap="round" stroke-linejoin="round">
      <path d="M22 16.92v3a2 2 0 0 1-2.18 2 19.79 19.79 0 0 1-8.63-3.07 19.5 19.5 0 0 1-6-6 19.79 19.79 0 0 1-3.07-8.67A2 2 0 0 1 4.11 2h3a2 2 0 0 1 2 1.72c.127.96.361 1.903.7 2.81a2 2 0 0 1-.45 2.11L8.09 9.91a16 16 0 0 0 6 6l1.27-1.27a2 2 0 0 1 2.11-.45c.907.339 1.85.573 2.81.7A2 2 0 0 1 22 16.92z"/>
      <!-- Dollar badge -->
      <circle cx="24" cy="8" r="6" fill="#10b981" stroke="#10b981" stroke-width="0"/>
      <text x="24" y="11.5" font-size="9" fill="white" text-anchor="middle" font-family="'JetBrains Mono', monospace" font-weight="700">$</text>
    </g>
  </symbol>

  <!-- Money/Revenue Icon -->
  <symbol id="icon-revenue" viewBox="0 0 32 32">
    <g stroke="currentColor" stroke-width="2" fill="none" stroke-linecap="round" stroke-linejoin="round">
      <circle cx="16" cy="16" r="12"/>
      <path d="M16 10v12"/>
      <path d="M19 12h-4a3 3 0 0 0 0 6h2a3 3 0 0 1 0 6h-4"/>
    </g>
  </symbol>

  <!-- Automation/Gear Icon -->
  <symbol id="icon-automation" viewBox="0 0 32 32">
    <g stroke="currentColor" stroke-width="2" fill="none" stroke-linecap="round" stroke-linejoin="round">
      <circle cx="16" cy="16" r="3"/>
      <path d="M16 4v3m0 18v3m8-12h3m-18 0H4m15.36-7.36l2.12-2.12M10.52 21.48l-2.12 2.12m12.24 0l2.12-2.12M10.52 10.52l-2.12-2.12"/>
    </g>
  </symbol>

  <!-- Shield/Protection Icon -->
  <symbol id="icon-shield" viewBox="0 0 32 32">
    <g stroke="currentColor" stroke-width="2" fill="none" stroke-linecap="round" stroke-linejoin="round">
      <path d="M16 3l-8 3v8a12 12 0 0 0 8 11.27A12 12 0 0 0 24 14V6l-8-3z"/>
      <path d="M16 10v8m-4-4h8"/>
    </g>
  </symbol>

  <!-- Checkmark/Success Icon -->
  <symbol id="icon-check" viewBox="0 0 32 32">
    <g stroke="currentColor" stroke-width="3" fill="none" stroke-linecap="round" stroke-linejoin="round">
      <polyline points="6 16 12 22 26 8"/>
    </g>
  </symbol>

  <!-- Paper/Document Icon -->
  <symbol id="icon-paper" viewBox="0 0 32 32">
    <g stroke="currentColor" stroke-width="2" fill="none" stroke-linecap="round" stroke-linejoin="round">
      <path d="M8 4h12l4 4v18a2 2 0 0 1-2 2H8a2 2 0 0 1-2-2V6a2 2 0 0 1 2-2z"/>
      <path d="M20 4v4h4"/>
      <line x1="10" y1="14" x2="22" y2="14"/>
      <line x1="10" y1="18" x2="22" y2="18"/>
      <line x1="10" y1="22" x2="16" y2="22"/>
    </g>
  </symbol>

  <!-- Truck/Delivery Icon -->
  <symbol id="icon-truck" viewBox="0 0 32 32">
    <g stroke="currentColor" stroke-width="2" fill="none" stroke-linecap="round" stroke-linejoin="round">
      <rect x="2" y="10" width="16" height="10" rx="1"/>
      <path d="M18 10h4l4 4v6h-8V10z"/>
      <circle cx="6" cy="24" r="2"/>
      <circle cx="24" cy="24" r="2"/>
      <path d="M8 24h14"/>
    </g>
  </symbol>

  <!-- Time/Clock Icon -->
  <symbol id="icon-time" viewBox="0 0 32 32">
    <g stroke="currentColor" stroke-width="2" fill="none" stroke-linecap="round" stroke-linejoin="round">
      <circle cx="16" cy="16" r="12"/>
      <path d="M16 8v8l4 4"/>
    </g>
  </symbol>

  <!-- Tag/Price Icon -->
  <symbol id="icon-tag" viewBox="0 0 32 32">
    <g stroke="currentColor" stroke-width="2" fill="none" stroke-linecap="round" stroke-linejoin="round">
      <path d="M4 16l12-12h12v12L16 28 4 16z"/>
      <circle cx="22" cy="10" r="1.5" fill="currentColor"/>
    </g>
  </symbol>
</svg>
